<svg xmlns="http://www.w3.org/2000/svg" version="1.1" xmlns:xlink="http://www.w3.org/1999/xlink" xmlns:svgjs="http://svgjs.dev/svgjs" width="1000" height="323" viewBox="0 0 1000 323"><g transform="matrix(1,0,0,1,-0.6060606060606233,-0.25874571573146454)"><svg viewBox="0 0 396 128" data-background-color="#ffffff" preserveAspectRatio="xMidYMid meet" height="323" width="1000" xmlns="http://www.w3.org/2000/svg" xmlns:xlink="http://www.w3.org/1999/xlink"><g id="tight-bounds" transform="matrix(1,0,0,1,0.2400000000000091,0.10253700189977621)"><svg viewBox="0 0 395.52 127.79492599620048" height="127.79492599620048" width="395.52"><g><svg viewBox="0 0 395.52 127.79492599620048" height="127.79492599620048" width="395.52"><g><svg viewBox="0 0 395.52 127.79492599620048" height="127.79492599620048" width="395.52"><g id="textblocktransform"><svg viewBox="0 0 395.52 127.79492599620048" height="127.79492599620048" width="395.52" id="textblock"><g><svg viewBox="0 0 395.52 82.36202764976959" height="82.36202764976959" width="395.52"><g transform="matrix(1,0,0,1,0,0)"><svg width="395.52" viewBox="0 -35.7 175.09 36.150000000000006" height="82.36202764976959" data-palette-color="#1478a3"><g class="wordmark-text-0" data-fill-palette-color="primary" id="text-0"><path d="M37.15 0L30.75 0 27.2-8.25 10.05-8.25 6.5 0 0 0 15.95-35.25 21.2-35.25 37.15 0ZM18.6-28.25L12.15-13.25 25.05-13.25 18.6-28.25ZM56.95-19.05L70.3-19.05 70.3-2.15Q67.9-0.95 64.47-0.25 61.05 0.45 57.5 0.45L57.5 0.45Q52.05 0.45 48.05-1.73 44.05-3.9 41.92-7.98 39.8-12.05 39.8-17.65L39.8-17.65Q39.8-23.2 41.92-27.28 44.05-31.35 47.97-33.52 51.9-35.7 57.2-35.7L57.2-35.7Q60.9-35.7 64.15-34.63 67.4-33.55 69.55-31.55L69.55-31.55 67.4-26.9Q64.95-28.8 62.57-29.63 60.2-30.45 57.35-30.45L57.35-30.45Q51.9-30.45 49.12-27.23 46.35-24 46.35-17.65L46.35-17.65Q46.35-4.65 57.75-4.65L57.75-4.65Q61.15-4.65 64.55-5.6L64.55-5.6 64.55-14.45 56.95-14.45 56.95-19.05ZM101.15 0L77.55 0 77.55-35.25 101.15-35.25 101.15-30.15 83.84-30.15 83.84-20.45 100.15-20.45 100.15-15.4 83.84-15.4 83.84-5.1 101.15-5.1 101.15 0ZM130.64-10.8L136.54 0 129.54 0 123.49-11.25Q122.64-12.85 121.39-13.5 120.14-14.15 118.24-14.15L118.24-14.15 113.34-14.15 113.34 0 106.99 0 106.99-35.25 122.59-35.25Q128.59-35.25 131.72-32.58 134.84-29.9 134.84-24.85L134.84-24.85Q134.84-20.8 132.57-18.18 130.29-15.55 126.14-14.75L126.14-14.75Q128.94-14 130.64-10.8L130.64-10.8ZM121.69-19.1Q125.34-19.1 127.04-20.48 128.74-21.85 128.74-24.7L128.74-24.7Q128.74-27.6 127.04-28.93 125.34-30.25 121.69-30.25L121.69-30.25 113.29-30.25 113.29-19.1 121.69-19.1ZM175.09 0L168.69 0 165.14-8.25 147.99-8.25 144.44 0 137.94 0 153.89-35.25 159.14-35.25 175.09 0ZM156.54-28.25L150.09-13.25 162.99-13.25 156.54-28.25Z" fill="#1478a3" data-fill-palette-color="primary"></path></g></svg></g></svg></g><g transform="matrix(1,0,0,1,207.648,101.80572568921659)"><svg viewBox="0 0 187.87199999999999 25.989200306983875" height="25.989200306983875" width="187.87199999999999"><g transform="matrix(1,0,0,1,0,0)"><svg width="187.87199999999999" viewBox="3.05 -35.65 260.58 36.05" height="25.989200306983875" data-palette-color="#828b96"><path d="M19.4 0.4Q14.4 0.4 10.7-1.78 7-3.95 5.03-8.03 3.05-12.1 3.05-17.65L3.05-17.65Q3.05-23.2 5.03-27.25 7-31.3 10.7-33.48 14.4-35.65 19.4-35.65L19.4-35.65Q23.05-35.65 26.1-34.52 29.15-33.4 31.4-31.2L31.4-31.2 29.85-28.05Q27.3-30.2 24.85-31.15 22.4-32.1 19.45-32.1L19.45-32.1Q13.65-32.1 10.48-28.33 7.3-24.55 7.3-17.65L7.3-17.65Q7.3-10.7 10.48-6.93 13.65-3.15 19.45-3.15L19.45-3.15Q22.4-3.15 24.85-4.1 27.3-5.05 29.85-7.2L29.85-7.2 31.4-4.05Q29.15-1.85 26.1-0.73 23.05 0.4 19.4 0.4L19.4 0.4ZM47.2 0.35Q43.75 0.35 41.12-1.2 38.5-2.75 37.07-5.63 35.65-8.5 35.65-12.3L35.65-12.3Q35.65-16.1 37.07-18.98 38.5-21.85 41.12-23.4 43.75-24.95 47.2-24.95L47.2-24.95Q50.65-24.95 53.3-23.4 55.95-21.85 57.37-18.98 58.8-16.1 58.8-12.3L58.8-12.3Q58.8-8.5 57.37-5.63 55.95-2.75 53.3-1.2 50.65 0.35 47.2 0.35L47.2 0.35ZM47.2-3Q50.8-3 52.72-5.38 54.65-7.75 54.65-12.3L54.65-12.3Q54.65-16.75 52.7-19.18 50.75-21.6 47.2-21.6L47.2-21.6Q43.65-21.6 41.7-19.18 39.75-16.75 39.75-12.3L39.75-12.3Q39.75-7.8 41.67-5.4 43.6-3 47.2-3L47.2-3ZM77.09-24.95Q85.84-24.95 85.84-15.3L85.84-15.3 85.84 0 81.8 0 81.8-15.05Q81.8-18.45 80.47-20 79.15-21.55 76.25-21.55L76.25-21.55Q72.9-21.55 70.9-19.5 68.9-17.45 68.9-13.95L68.9-13.95 68.9 0 64.84 0 64.84-24.35 68.84-24.35 68.84-20.35Q70.05-22.6 72.2-23.78 74.34-24.95 77.09-24.95L77.09-24.95ZM101.49 0.35Q95.34 0.35 91.74-2.8L91.74-2.8 93.09-5.8Q95.04-4.25 97.07-3.58 99.09-2.9 101.64-2.9L101.64-2.9Q104.34-2.9 105.77-3.83 107.19-4.75 107.19-6.5L107.19-6.5Q107.19-7.95 106.24-8.8 105.29-9.65 103.09-10.15L103.09-10.15 98.99-11.1Q95.89-11.8 94.24-13.5 92.59-15.2 92.59-17.7L92.59-17.7Q92.59-20.95 95.14-22.95 97.69-24.95 101.94-24.95L101.94-24.95Q104.49-24.95 106.79-24.13 109.09-23.3 110.64-21.75L110.64-21.75 109.29-18.8Q105.94-21.65 101.94-21.65L101.94-21.65Q99.39-21.65 97.97-20.68 96.54-19.7 96.54-17.95L96.54-17.95Q96.54-16.5 97.42-15.63 98.29-14.75 100.24-14.3L100.24-14.3 104.39-13.3Q107.79-12.5 109.44-10.88 111.09-9.25 111.09-6.65L111.09-6.65Q111.09-3.45 108.52-1.55 105.94 0.35 101.49 0.35L101.49 0.35ZM133.69-24.35L137.74-24.35 137.74 0 133.79 0 133.79-4.15Q132.64-1.95 130.56-0.8 128.49 0.35 125.89 0.35L125.89 0.35Q121.54 0.35 119.34-2.08 117.14-4.5 117.14-9.25L117.14-9.25 117.14-24.35 121.19-24.35 121.19-9.35Q121.19-6.1 122.49-4.58 123.79-3.05 126.59-3.05L126.59-3.05Q129.79-3.05 131.74-5.13 133.69-7.2 133.69-10.6L133.69-10.6 133.69-24.35ZM149.34 0L145.29 0 145.29-35.25 149.34-35.25 149.34 0ZM167.59-2.9Q168.69-2.9 169.79-3.05L169.79-3.05 169.59 0.15Q168.44 0.35 167.09 0.35L167.09 0.35Q162.69 0.35 160.46-1.95 158.24-4.25 158.24-8.35L158.24-8.35 158.24-21.15 153.49-21.15 153.49-24.35 158.24-24.35 158.24-31.75 162.29-31.75 162.29-24.35 169.19-24.35 169.19-21.15 162.29-21.15 162.29-8.65Q162.29-2.9 167.59-2.9L167.59-2.9ZM183.78-24.95Q188.43-24.95 190.71-22.58 192.98-20.2 192.98-15.35L192.98-15.35 192.98 0 189.03 0 189.03-4.15Q188.08-2 186.13-0.83 184.18 0.35 181.63 0.35L181.63 0.35Q179.28 0.35 177.31-0.6 175.33-1.55 174.18-3.25 173.03-4.95 173.03-7L173.03-7Q173.03-9.75 174.43-11.28 175.83-12.8 179.03-13.48 182.23-14.15 187.93-14.15L187.93-14.15 189.03-14.15 189.03-15.8Q189.03-18.85 187.78-20.23 186.53-21.6 183.73-21.6L183.73-21.6Q179.53-21.6 175.38-19L175.38-19 174.03-21.95Q175.93-23.3 178.61-24.13 181.28-24.95 183.78-24.95L183.78-24.95ZM182.18-2.85Q185.18-2.85 187.11-4.88 189.03-6.9 189.03-10.1L189.03-10.1 189.03-11.55 188.13-11.55Q183.73-11.55 181.43-11.18 179.13-10.8 178.16-9.93 177.18-9.05 177.18-7.35L177.18-7.35Q177.18-5.4 178.61-4.13 180.03-2.85 182.18-2.85L182.18-2.85ZM212.63-24.95Q221.38-24.95 221.38-15.3L221.38-15.3 221.38 0 217.33 0 217.33-15.05Q217.33-18.45 216.01-20 214.68-21.55 211.78-21.55L211.78-21.55Q208.43-21.55 206.43-19.5 204.43-17.45 204.43-13.95L204.43-13.95 204.43 0 200.38 0 200.38-24.35 204.38-24.35 204.38-20.35Q205.58-22.6 207.73-23.78 209.88-24.95 212.63-24.95L212.63-24.95ZM239.48-2.9Q240.58-2.9 241.68-3.05L241.68-3.05 241.48 0.15Q240.33 0.35 238.98 0.35L238.98 0.35Q234.58 0.35 232.35-1.95 230.13-4.25 230.13-8.35L230.13-8.35 230.13-21.15 225.38-21.15 225.38-24.35 230.13-24.35 230.13-31.75 234.18-31.75 234.18-24.35 241.08-24.35 241.08-21.15 234.18-21.15 234.18-8.65Q234.18-2.9 239.48-2.9L239.48-2.9ZM254.03 0.35Q247.88 0.35 244.28-2.8L244.28-2.8 245.63-5.8Q247.58-4.25 249.6-3.58 251.63-2.9 254.18-2.9L254.18-2.9Q256.88-2.9 258.3-3.83 259.73-4.75 259.73-6.5L259.73-6.5Q259.73-7.95 258.78-8.8 257.83-9.65 255.63-10.15L255.63-10.15 251.53-11.1Q248.43-11.8 246.78-13.5 245.13-15.2 245.13-17.7L245.13-17.7Q245.13-20.95 247.68-22.95 250.23-24.95 254.48-24.95L254.48-24.95Q257.03-24.95 259.33-24.13 261.63-23.3 263.18-21.75L263.18-21.75 261.83-18.8Q258.48-21.65 254.48-21.65L254.48-21.65Q251.93-21.65 250.5-20.68 249.08-19.7 249.08-17.95L249.08-17.95Q249.08-16.5 249.95-15.63 250.83-14.75 252.78-14.3L252.78-14.3 256.93-13.3Q260.33-12.5 261.98-10.88 263.63-9.25 263.63-6.65L263.63-6.65Q263.63-3.45 261.05-1.55 258.48 0.35 254.03 0.35L254.03 0.35Z" opacity="1" transform="matrix(1,0,0,1,0,0)" fill="#828b96" class="slogan-text-1" data-fill-palette-color="secondary" id="text-1"></path></svg></g></svg></g></svg></g></svg></g></svg></g><defs></defs></svg><rect width="395.52" height="127.79492599620048" fill="none" stroke="none" visibility="hidden"></rect></g></svg></g></svg>